<mxfile host="app.diagrams.net" modified="2022-08-11T02:55:06.121Z" agent="5.0 (Macintosh; Intel Mac OS X 10_15_7) AppleWebKit/537.36 (KHTML, like Gecko) Chrome/104.0.0.0 Safari/537.36" etag="H8rR185aKKfkuSHzTqwJ" version="20.2.3" type="github">
  <diagram id="40TfQQK1eF6lb47exuI9" name="第 1 页">
    <mxGraphModel dx="946" dy="614" grid="1" gridSize="10" guides="1" tooltips="1" connect="1" arrows="1" fold="1" page="1" pageScale="1" pageWidth="827" pageHeight="1169" background="#EEEEEE" math="0" shadow="0">
      <root>
        <mxCell id="0" />
        <mxCell id="1" parent="0" />
        <mxCell id="tMri1krznpawDl7mKPqJ-2" value="&lt;h1&gt;事件委托&lt;/h1&gt;&lt;p&gt;&lt;font style=&quot;font-size: 14px;&quot;&gt;又称为事件代理，是把需要绑定在子元素的响应时间委托给父元素，让父元素担当事件监听的职务。&lt;/font&gt;&lt;/p&gt;" style="text;html=1;strokeColor=none;fillColor=none;spacing=5;spacingTop=-20;whiteSpace=wrap;overflow=hidden;rounded=0;fontColor=#1A1A1A;" vertex="1" parent="1">
          <mxGeometry x="20" y="160" width="200" height="120" as="geometry" />
        </mxCell>
        <mxCell id="tMri1krznpawDl7mKPqJ-3" value="" style="shape=curlyBracket;whiteSpace=wrap;html=1;rounded=1;fontSize=14;fontColor=#1A1A1A;strokeColor=#909090;fillColor=#F5AB50;" vertex="1" parent="1">
          <mxGeometry x="220" y="60" width="20" height="450" as="geometry" />
        </mxCell>
        <mxCell id="tMri1krznpawDl7mKPqJ-4" value="&lt;font style=&quot;font-size: 16px;&quot;&gt;一个事件触发之后会在子元素和父元素之间传播：事件流的传播会经过三个阶段：&lt;b style=&quot;color: rgb(0, 153, 0);&quot;&gt;捕获阶段&lt;/b&gt;&lt;font color=&quot;#009900&quot;&gt;&amp;nbsp;&lt;/font&gt;&lt;span style=&quot;color: rgb(0, 153, 0); font-family: Arial, sans-serif;&quot;&gt;→ 目标阶段&amp;nbsp;&amp;nbsp;&lt;/span&gt;&lt;/font&gt;&lt;span style=&quot;font-family: Arial, sans-serif;&quot;&gt;&lt;font size=&quot;3&quot;&gt;&lt;font style=&quot;&quot; color=&quot;#009900&quot;&gt;→ 冒泡阶段&lt;/font&gt;&lt;br&gt;&lt;br&gt;&lt;font style=&quot;&quot; color=&quot;#ff0000&quot;&gt;（事件委托就是在冒泡阶段完成的）&lt;/font&gt;&lt;/font&gt;&lt;br&gt;&lt;/span&gt;" style="rounded=1;whiteSpace=wrap;html=1;fontSize=14;strokeColor=#d6b656;fillColor=#fff2cc;align=left;" vertex="1" parent="1">
          <mxGeometry x="280" y="60" width="480" height="110" as="geometry" />
        </mxCell>
        <mxCell id="tMri1krznpawDl7mKPqJ-7" value="" style="shape=ext;double=1;rounded=1;whiteSpace=wrap;html=1;labelBackgroundColor=none;fontSize=16;strokeColor=#6c8ebf;fillColor=#dae8fc;" vertex="1" parent="1">
          <mxGeometry x="280" y="190" width="480" height="130" as="geometry" />
        </mxCell>
        <mxCell id="tMri1krznpawDl7mKPqJ-6" value="&lt;ol&gt;&lt;li&gt;一个列表有大量的列表项，点击每一个列表项响应一个事件&lt;/li&gt;&lt;li&gt;一个列表，列表项并不多，但是用户可能随时增删列表项&lt;/li&gt;&lt;/ol&gt;" style="text;strokeColor=none;fillColor=none;html=1;whiteSpace=wrap;verticalAlign=middle;overflow=hidden;labelBackgroundColor=none;fontSize=16;fontColor=#000000;" vertex="1" parent="1">
          <mxGeometry x="280" y="190" width="370" height="160" as="geometry" />
        </mxCell>
        <mxCell id="tMri1krznpawDl7mKPqJ-8" value="应用场景：" style="text;html=1;strokeColor=none;fillColor=none;align=center;verticalAlign=middle;whiteSpace=wrap;rounded=0;labelBackgroundColor=none;fontSize=16;fontColor=#000000;" vertex="1" parent="1">
          <mxGeometry x="270" y="200" width="180" height="30" as="geometry" />
        </mxCell>
        <mxCell id="tMri1krznpawDl7mKPqJ-11" value="&lt;p style=&quot;margin-top: 0px; margin-bottom: 16px; color: rgb(51, 51, 51); font-family: &amp;quot;Helvetica Neue&amp;quot;, Helvetica, &amp;quot;Segoe UI&amp;quot;, Arial, freesans, sans-serif; text-align: start; background-color: rgb(255, 255, 255);&quot;&gt;事件委托中有两个对象&lt;code style=&quot;color: rgb(0, 0, 0); font-family: Menlo, Monaco, Consolas, &amp;quot;Courier New&amp;quot;, monospace; background-color: rgb(240, 240, 240); border-radius: 3px; padding: 0.2em 0px; font-size: 0.85em !important;&quot;&gt;target&lt;/code&gt;和&lt;code style=&quot;color: rgb(0, 0, 0); font-family: Menlo, Monaco, Consolas, &amp;quot;Courier New&amp;quot;, monospace; background-color: rgb(240, 240, 240); border-radius: 3px; padding: 0.2em 0px; font-size: 0.85em !important;&quot;&gt;currentTarget&lt;/code&gt;，两者的含义不同：&lt;/p&gt;&lt;ul style=&quot;padding-left: 2em; margin-top: 0px; margin-bottom: 16px; color: rgb(51, 51, 51); font-family: &amp;quot;Helvetica Neue&amp;quot;, Helvetica, &amp;quot;Segoe UI&amp;quot;, Arial, freesans, sans-serif; text-align: start; background-color: rgb(255, 255, 255);&quot;&gt;&lt;li style=&quot;margin-bottom: 0px;&quot;&gt;&lt;code style=&quot;color: rgb(0, 0, 0); font-family: Menlo, Monaco, Consolas, &amp;quot;Courier New&amp;quot;, monospace; background-color: rgb(240, 240, 240); border-radius: 3px; padding: 0.2em 0px; font-size: 0.85em !important;&quot;&gt;target&lt;/code&gt;：事件触发的真实元素（点击）&lt;/li&gt;&lt;li style=&quot;margin-bottom: 0px;&quot;&gt;&lt;code style=&quot;color: rgb(0, 0, 0); font-family: Menlo, Monaco, Consolas, &amp;quot;Courier New&amp;quot;, monospace; background-color: rgb(240, 240, 240); border-radius: 3px; padding: 0.2em 0px; font-size: 0.85em !important;&quot;&gt;currentTarget&lt;/code&gt;：事件绑定元素（绑定）&lt;/li&gt;&lt;li style=&quot;margin-bottom: 0px;&quot;&gt;事件处理函数中的&lt;code style=&quot;color: rgb(0, 0, 0); font-family: Menlo, Monaco, Consolas, &amp;quot;Courier New&amp;quot;, monospace; background-color: rgb(240, 240, 240); border-radius: 3px; padding: 0.2em 0px; font-size: 0.85em !important;&quot;&gt;this&lt;/code&gt;指向为&lt;code style=&quot;color: rgb(0, 0, 0); font-family: Menlo, Monaco, Consolas, &amp;quot;Courier New&amp;quot;, monospace; background-color: rgb(240, 240, 240); border-radius: 3px; padding: 0.2em 0px; font-size: 0.85em !important;&quot;&gt;currentTarget&lt;/code&gt;&lt;/li&gt;&lt;/ul&gt;" style="shape=ext;double=1;rounded=1;whiteSpace=wrap;html=1;labelBackgroundColor=none;fontSize=16;fontColor=#000000;strokeColor=#909090;fillColor=#F5AB50;" vertex="1" parent="1">
          <mxGeometry x="280" y="340" width="480" height="170" as="geometry" />
        </mxCell>
      </root>
    </mxGraphModel>
  </diagram>
</mxfile>
